<svg width="156" height="29" viewBox="0 0 156 29" fill="none" xmlns="http://www.w3.org/2000/svg">
<g clip-path="url(#clip0)">
<path d="M6.6155 5.664C5.5165 5.664 4.4945 5.825 3.5495 6.147C2.5975 6.469 1.761 6.903 1.04 7.449L1.796 8.7825C2.412 8.2855 3.126 7.904 3.938 7.638C4.75 7.372 5.611 7.239 6.521 7.239C7.62 7.239 8.628 7.428 9.545 7.806C10.455 8.184 11.246 8.709 11.918 9.381C12.59 10.06 13.1115 10.8475 13.4825 11.7435C13.8465 12.6465 14.0285 13.616 14.0285 14.652C14.0285 15.695 13.8465 16.6645 13.4825 17.5605C13.1115 18.4565 12.59 19.2405 11.918 19.9125C11.246 20.5915 10.455 21.12 9.545 21.498C8.628 21.876 7.62 22.065 6.521 22.065C5.611 22.065 4.75 21.932 3.938 21.666C3.126 21.4 2.412 21.0185 1.796 20.5215L1.04 21.855C1.768 22.408 2.608 22.842 3.56 23.157C4.512 23.479 5.5305 23.64 6.6155 23.64C7.9175 23.64 9.125 23.4125 10.238 22.9575C11.344 22.5025 12.3135 21.8655 13.1465 21.0465C13.9725 20.2345 14.6165 19.2825 15.0785 18.1905C15.5405 17.0985 15.7715 15.919 15.7715 14.652C15.7715 13.385 15.5405 12.2055 15.0785 11.1135C14.6165 10.0215 13.9725 9.066 13.1465 8.247C12.3205 7.435 11.351 6.8015 10.238 6.3465C9.125 5.8915 7.9175 5.664 6.6155 5.664Z" fill="#EEC290"/>
<path d="M24.3845 23.336C25.4835 23.336 26.5055 23.175 27.4505 22.853C28.4025 22.531 29.239 22.097 29.96 21.551L29.204 20.2175C28.588 20.7145 27.874 21.096 27.062 21.362C26.25 21.628 25.389 21.761 24.479 21.761C23.38 21.761 22.372 21.572 21.455 21.194C20.545 20.816 19.754 20.291 19.082 19.619C18.41 18.94 17.8885 18.1525 17.5175 17.2565C17.1535 16.3535 16.9715 15.384 16.9715 14.348C16.9715 13.305 17.1535 12.3355 17.5175 11.4395C17.8885 10.5435 18.41 9.7595 19.082 9.0875C19.754 8.4085 20.545 7.88 21.455 7.502C22.372 7.124 23.38 6.935 24.479 6.935C25.389 6.935 26.25 7.068 27.062 7.334C27.874 7.6 28.588 7.9815 29.204 8.4785L29.96 7.145C29.232 6.592 28.392 6.158 27.44 5.843C26.488 5.521 25.4695 5.36 24.3845 5.36C23.0825 5.36 21.875 5.5875 20.762 6.0425C19.656 6.4975 18.6865 7.1345 17.8535 7.9535C17.0275 8.7655 16.3835 9.7175 15.9215 10.8095C15.4595 11.9015 15.2285 13.081 15.2285 14.348C15.2285 15.615 15.4595 16.7945 15.9215 17.8865C16.3835 18.9785 17.0275 19.934 17.8535 20.753C18.6795 21.565 19.649 22.1985 20.762 22.6535C21.875 23.1085 23.0825 23.336 24.3845 23.336Z" fill="#EEC290"/>
<path d="M38.1754 23.336C39.2464 23.336 40.2194 23.105 41.0944 22.643C41.9764 22.181 42.6729 21.5335 43.1839 20.7005L42.0499 20.0915C41.1539 21.4075 39.8834 22.0655 38.2384 22.0655C37.3844 22.0655 36.6249 21.8835 35.9599 21.5195C35.2949 21.1485 34.7734 20.641 34.3954 19.997C34.0244 19.346 33.8389 18.604 33.8389 17.771H43.5199C43.5339 17.694 43.5409 17.6275 43.5409 17.5715C43.5479 17.5155 43.5514 17.449 43.5514 17.372C43.5234 16.301 43.2644 15.356 42.7744 14.537C42.2914 13.711 41.6334 13.067 40.8004 12.605C39.9744 12.143 39.0294 11.912 37.9654 11.912C37.1884 11.912 36.4569 12.059 35.7709 12.353C35.0919 12.647 34.4934 13.0565 33.9754 13.5815C33.4574 14.1065 33.0514 14.719 32.7574 15.419C32.4634 16.112 32.3164 16.861 32.3164 17.666C32.3164 18.737 32.5684 19.703 33.0724 20.564C33.5834 21.418 34.2799 22.0935 35.1619 22.5905C36.0439 23.0875 37.0484 23.336 38.1754 23.336ZM33.9229 16.616C34.0139 15.937 34.2449 15.342 34.6159 14.831C34.9939 14.313 35.4734 13.9105 36.0544 13.6235C36.6354 13.3295 37.2794 13.1825 37.9864 13.1825C38.6794 13.1825 39.3129 13.3295 39.8869 13.6235C40.4609 13.9175 40.9369 14.3235 41.3149 14.8415C41.6929 15.3595 41.9274 15.951 42.0184 16.616H33.9229ZM52.1608 23.336C52.8748 23.336 53.5468 23.2275 54.1768 23.0105C54.8068 22.8005 55.3563 22.5135 55.8253 22.1495L55.1848 21.1205C54.4148 21.7295 53.4698 22.034 52.3498 22.034C51.4748 22.034 50.7013 21.8415 50.0293 21.4565C49.3643 21.0715 48.8428 20.5465 48.4648 19.8815C48.0868 19.2165 47.8978 18.464 47.8978 17.624C47.8978 16.798 48.0833 16.0525 48.4543 15.3875C48.8253 14.7225 49.3433 14.194 50.0083 13.802C50.6803 13.41 51.4573 13.214 52.3393 13.214C53.4523 13.214 54.4043 13.5185 55.1953 14.1275L55.8253 13.0985C55.3633 12.7275 54.8138 12.437 54.1768 12.227C53.5398 12.017 52.8678 11.912 52.1608 11.912C51.0618 11.912 50.0713 12.164 49.1893 12.668C48.3073 13.165 47.6108 13.844 47.0998 14.705C46.5888 15.566 46.3333 16.539 46.3333 17.624C46.3333 18.716 46.5923 19.6925 47.1103 20.5535C47.6353 21.4145 48.3388 22.0935 49.2208 22.5905C50.1028 23.0875 51.0828 23.336 52.1608 23.336ZM63.5068 23.336C65.1378 23.336 66.3033 22.972 67.0033 22.244C67.7033 21.509 68.0533 20.277 68.0533 18.548V12.248H66.5203V18.275C66.5203 19.633 66.2893 20.6025 65.8273 21.1835C65.3723 21.7575 64.5988 22.0445 63.5068 22.0445C62.4218 22.0445 61.6483 21.7575 61.1863 21.1835C60.7243 20.6025 60.4933 19.633 60.4933 18.275V12.248H58.9603V18.548C58.9603 20.277 59.3103 21.509 60.0103 22.244C60.7103 22.972 61.8758 23.336 63.5068 23.336ZM77.1334 28.775C78.9324 28.775 80.3534 28.306 81.3964 27.368C82.4394 26.43 82.9609 25.072 82.9609 23.294V12.248H81.4279V14.4845C80.9939 13.6795 80.3884 13.0495 79.6114 12.5945C78.8344 12.1395 77.9664 11.912 77.0074 11.912C75.9784 11.912 75.0579 12.1605 74.2459 12.6575C73.4409 13.1475 72.8039 13.823 72.3349 14.684C71.8659 15.545 71.6314 16.525 71.6314 17.624C71.6314 18.73 71.8659 19.7135 72.3349 20.5745C72.8109 21.4355 73.4514 22.111 74.2564 22.601C75.0684 23.091 75.9749 23.336 76.9759 23.336C77.9349 23.336 78.8029 23.105 79.5799 22.643C80.3639 22.181 80.9799 21.544 81.4279 20.732V23.357C81.4279 24.218 81.2389 24.9565 80.8609 25.5725C80.4899 26.1885 79.9789 26.6575 79.3279 26.9795C78.6839 27.3085 77.9524 27.473 77.1334 27.473C76.1604 27.473 75.2924 27.2525 74.5294 26.8115C73.7664 26.3775 73.2204 25.7895 72.8914 25.0475L71.5999 25.646C72.5309 27.732 74.3754 28.775 77.1334 28.775ZM77.3434 22.0025C76.5454 22.0025 75.8349 21.8135 75.2119 21.4355C74.5889 21.0575 74.0989 20.5395 73.7419 19.8815C73.3849 19.2235 73.2064 18.4745 73.2064 17.6345C73.2064 16.7805 73.3849 16.0245 73.7419 15.3665C74.0989 14.7015 74.5889 14.1835 75.2119 13.8125C75.8419 13.4345 76.5559 13.2455 77.3539 13.2455C78.1589 13.2455 78.8729 13.4345 79.4959 13.8125C80.1189 14.1835 80.6089 14.7015 80.9659 15.3665C81.3229 16.0245 81.5014 16.7805 81.5014 17.6345C81.5014 18.4815 81.3229 19.234 80.9659 19.892C80.6089 20.55 80.1189 21.068 79.4959 21.446C78.8729 21.817 78.1554 22.0025 77.3434 22.0025ZM88.2371 10.0955C88.5171 10.0955 88.7551 9.9975 88.9511 9.8015C89.1471 9.6055 89.2451 9.3675 89.2451 9.0875C89.2451 8.8075 89.1471 8.573 88.9511 8.384C88.7551 8.188 88.5171 8.09 88.2371 8.09C87.9571 8.09 87.7191 8.188 87.5231 8.384C87.3341 8.573 87.2396 8.8075 87.2396 9.0875C87.2396 9.3675 87.3341 9.6055 87.5231 9.8015C87.7191 9.9975 87.9571 10.0955 88.2371 10.0955ZM87.4706 23H89.0036V12.248H87.4706V23ZM98.5709 23.336C99.6419 23.336 100.615 23.105 101.49 22.643C102.372 22.181 103.068 21.5335 103.579 20.7005L102.445 20.0915C101.549 21.4075 100.279 22.0655 98.6339 22.0655C97.7799 22.0655 97.0204 21.8835 96.3554 21.5195C95.6904 21.1485 95.1689 20.641 94.7909 19.997C94.4199 19.346 94.2344 18.604 94.2344 17.771H103.915C103.929 17.694 103.936 17.6275 103.936 17.5715C103.943 17.5155 103.947 17.449 103.947 17.372C103.919 16.301 103.66 15.356 103.17 14.537C102.687 13.711 102.029 13.067 101.196 12.605C100.37 12.143 99.4249 11.912 98.3609 11.912C97.5839 11.912 96.8524 12.059 96.1664 12.353C95.4874 12.647 94.8889 13.0565 94.3709 13.5815C93.8529 14.1065 93.4469 14.719 93.1529 15.419C92.8589 16.112 92.7119 16.861 92.7119 17.666C92.7119 18.737 92.9639 19.703 93.4679 20.564C93.9789 21.418 94.6754 22.0935 95.5574 22.5905C96.4394 23.0875 97.4439 23.336 98.5709 23.336ZM94.3184 16.616C94.4094 15.937 94.6404 15.342 95.0114 14.831C95.3894 14.313 95.8689 13.9105 96.4499 13.6235C97.0309 13.3295 97.6749 13.1825 98.3819 13.1825C99.0749 13.1825 99.7084 13.3295 100.282 13.6235C100.856 13.9175 101.332 14.3235 101.71 14.8415C102.088 15.3595 102.323 15.951 102.414 16.616H94.3184ZM111.089 23H112.097L115.467 14.6315L118.827 23H119.846L125.064 12.248H123.311L119.373 20.795L115.982 12.248H114.953L111.561 20.795L107.624 12.248H105.87L111.089 23ZM128.74 10.0955C129.02 10.0955 129.258 9.9975 129.454 9.8015C129.65 9.6055 129.748 9.3675 129.748 9.0875C129.748 8.8075 129.65 8.573 129.454 8.384C129.258 8.188 129.02 8.09 128.74 8.09C128.46 8.09 128.222 8.188 128.026 8.384C127.837 8.573 127.743 8.8075 127.743 9.0875C127.743 9.3675 127.837 9.6055 128.026 9.8015C128.222 9.9975 128.46 10.0955 128.74 10.0955ZM127.974 23H129.507V12.248H127.974V23ZM139.032 23.336C139.746 23.336 140.418 23.2275 141.048 23.0105C141.678 22.8005 142.227 22.5135 142.696 22.1495L142.056 21.1205C141.286 21.7295 140.341 22.034 139.221 22.034C138.346 22.034 137.572 21.8415 136.9 21.4565C136.235 21.0715 135.714 20.5465 135.336 19.8815C134.958 19.2165 134.769 18.464 134.769 17.624C134.769 16.798 134.954 16.0525 135.325 15.3875C135.696 14.7225 136.214 14.194 136.879 13.802C137.551 13.41 138.328 13.214 139.21 13.214C140.323 13.214 141.275 13.5185 142.066 14.1275L142.696 13.0985C142.234 12.7275 141.685 12.437 141.048 12.227C140.411 12.017 139.739 11.912 139.032 11.912C137.933 11.912 136.942 12.164 136.06 12.668C135.178 13.165 134.482 13.844 133.971 14.705C133.46 15.566 133.204 16.539 133.204 17.624C133.204 18.716 133.463 19.6925 133.981 20.5535C134.506 21.4145 135.21 22.0935 136.092 22.5905C136.974 23.0875 137.954 23.336 139.032 23.336ZM144.613 23H155.124V21.74H147.396L155.365 12.248H145.432V13.508H152.572L144.613 23Z" fill="black"/>
</g>
<defs>
<clipPath id="clip0">
<rect width="156" height="29" fill="white"/>
</clipPath>
</defs>
</svg>
