<svg width="31" height="29" viewBox="0 0 31 29" fill="none" xmlns="http://www.w3.org/2000/svg">
<g clip-path="url(#clip0)">
<path d="M6.6155 5.664C5.5165 5.664 4.4945 5.825 3.5495 6.147C2.5975 6.469 1.761 6.903 1.04 7.449L1.796 8.7825C2.412 8.2855 3.126 7.904 3.938 7.638C4.75 7.372 5.611 7.239 6.521 7.239C7.62 7.239 8.628 7.428 9.545 7.806C10.455 8.184 11.246 8.709 11.918 9.381C12.59 10.06 13.1115 10.8475 13.4825 11.7435C13.8465 12.6465 14.0285 13.616 14.0285 14.652C14.0285 15.695 13.8465 16.6645 13.4825 17.5605C13.1115 18.4565 12.59 19.2405 11.918 19.9125C11.246 20.5915 10.455 21.12 9.545 21.498C8.628 21.876 7.62 22.065 6.521 22.065C5.611 22.065 4.75 21.932 3.938 21.666C3.126 21.4 2.412 21.0185 1.796 20.5215L1.04 21.855C1.768 22.408 2.608 22.842 3.56 23.157C4.512 23.479 5.5305 23.64 6.6155 23.64C7.9175 23.64 9.125 23.4125 10.238 22.9575C11.344 22.5025 12.3135 21.8655 13.1465 21.0465C13.9725 20.2345 14.6165 19.2825 15.0785 18.1905C15.5405 17.0985 15.7715 15.919 15.7715 14.652C15.7715 13.385 15.5405 12.2055 15.0785 11.1135C14.6165 10.0215 13.9725 9.066 13.1465 8.247C12.3205 7.435 11.351 6.8015 10.238 6.3465C9.125 5.8915 7.9175 5.664 6.6155 5.664Z" fill="#EEC290"/>
<path d="M24.3845 23.336C25.4835 23.336 26.5055 23.175 27.4505 22.853C28.4025 22.531 29.239 22.097 29.96 21.551L29.204 20.2175C28.588 20.7145 27.874 21.096 27.062 21.362C26.25 21.628 25.389 21.761 24.479 21.761C23.38 21.761 22.372 21.572 21.455 21.194C20.545 20.816 19.754 20.291 19.082 19.619C18.41 18.94 17.8885 18.1525 17.5175 17.2565C17.1535 16.3535 16.9715 15.384 16.9715 14.348C16.9715 13.305 17.1535 12.3355 17.5175 11.4395C17.8885 10.5435 18.41 9.7595 19.082 9.0875C19.754 8.4085 20.545 7.88 21.455 7.502C22.372 7.124 23.38 6.935 24.479 6.935C25.389 6.935 26.25 7.068 27.062 7.334C27.874 7.6 28.588 7.9815 29.204 8.4785L29.96 7.145C29.232 6.592 28.392 6.158 27.44 5.843C26.488 5.521 25.4695 5.36 24.3845 5.36C23.0825 5.36 21.875 5.5875 20.762 6.0425C19.656 6.4975 18.6865 7.1345 17.8535 7.9535C17.0275 8.7655 16.3835 9.7175 15.9215 10.8095C15.4595 11.9015 15.2285 13.081 15.2285 14.348C15.2285 15.615 15.4595 16.7945 15.9215 17.8865C16.3835 18.9785 17.0275 19.934 17.8535 20.753C18.6795 21.565 19.649 22.1985 20.762 22.6535C21.875 23.1085 23.0825 23.336 24.3845 23.336Z" fill="#EEC290"/>
</g>
<defs>
<clipPath id="clip0">
<rect width="31" height="29" fill="white"/>
</clipPath>
</defs>
</svg>
